# xmcd
#
# Track frame offsets: 
#        172
#        22037
#        35485
#        57575
#        70870
#        84667
#        96610
#        108742
#
# Disc length: 1985 seconds
#
# Revision: 2
# Processed by: cddbd v1.4PL0 Copyright (c) Steve Scherf et al.
# Submitted via: ExactAudioCopy v0.90b2
#
DISCID=7407bf08
DTITLE=Taj Mahal - Taj Mahal
DYEAR=1968
DGENRE=Blues
TTITLE0=Leaving Trunk
TTITLE1=Statesboro Blues
TTITLE2=Checkin' Up On My Baby
TTITLE3=Everybody's Got To Change Sometime
TTITLE4=EZ Rider
TTITLE5=Dust My Broom
TTITLE6=Diving Duck Blues
TTITLE7=The Celebrated Walkin' Blues
EXTD=
EXTT0=
EXTT1=
EXTT2=
EXTT3=
EXTT4=
EXTT5=
EXTT6=
EXTT7=
PLAYORDER=
